<svg class="h-full w-full" viewBox="0 0 41 41" fill="none" xmlns="http://www.w3.org/2000/svg"> <path d="M18.4534 30.3571C18.6111 30.3573 18.7673 30.3886 18.9129 30.4492C19.0585 30.5098 19.1908 30.5984 19.3021 30.7101C19.4135 30.8218 19.5018 30.9543 19.5619 31.1001C19.6221 31.2459 19.6529 31.4021 19.6527 31.5598C19.6525 31.7175 19.6212 31.8736 19.5606 32.0192C19.5 32.1649 19.4114 32.2971 19.2997 32.4085C19.188 32.5199 19.0555 32.6081 18.9097 32.6683C18.7639 32.7284 18.6077 32.7593 18.45 32.759C18.1315 32.7586 17.8262 32.6316 17.6013 32.4061C17.3764 32.1805 17.2503 31.8749 17.2508 31.5564C17.2512 31.2379 17.3782 30.9326 17.6037 30.7077C17.8293 30.4828 18.1349 30.3567 18.4534 30.3571ZM37.2861 22.931C37.1284 22.9309 36.9722 22.8997 36.8266 22.8393C36.6809 22.7788 36.5486 22.6902 36.4371 22.5786C36.3257 22.467 36.2373 22.3346 36.1771 22.1888C36.1168 22.0431 36.0859 21.8869 36.086 21.7292C36.0861 21.5715 36.1173 21.4153 36.1777 21.2697C36.2382 21.124 36.3267 20.9917 36.4383 20.8802C36.5499 20.7688 36.6824 20.6804 36.8282 20.6202C36.9739 20.5599 37.1301 20.529 37.2878 20.5291C37.6063 20.5293 37.9117 20.6561 38.1368 20.8814C38.3618 21.1068 38.4881 21.4124 38.4879 21.7309C38.4877 22.0494 38.3609 22.3548 38.1356 22.5798C37.9102 22.8049 37.6046 22.9312 37.2861 22.931ZM37.2861 18.0178C36.3014 18.0187 35.3573 18.4103 34.661 19.1066C33.9647 19.8029 33.5731 20.747 33.5722 21.7317C33.5722 22.1298 33.6388 22.5261 33.7686 22.9122L21.5011 29.4432C21.1609 28.9493 20.7058 28.5455 20.1749 28.2666C19.6439 27.9878 19.0531 27.8422 18.4534 27.8425C17.0372 27.8425 15.7474 28.6539 15.1222 29.9198L4.10172 24.108C2.93664 23.4965 2.06539 21.5797 2.15764 19.8338C2.20547 18.9232 2.51981 18.216 2.99985 17.9427C3.30393 17.7718 3.66951 17.7855 4.05901 17.9888L4.13076 18.0281C7.05201 19.5656 16.6084 24.6 17.0116 24.7862C17.6317 25.075 17.9768 25.1911 19.036 24.6889L38.7911 14.415C39.0816 14.3056 39.4198 14.0272 39.4198 13.6052C39.4198 13.021 38.8151 12.7903 38.8133 12.7903C37.6893 12.2522 35.9621 11.4442 34.2777 10.6549C30.6766 8.96879 26.5953 7.05887 24.8033 6.11929C23.2556 5.30954 22.0102 5.99287 21.7881 6.12954L21.3576 6.34308C13.2908 10.332 2.49418 15.6791 1.87918 16.0532C0.780723 16.7229 0.0990977 18.0571 0.0102644 19.7125C-0.126402 22.3382 1.21122 25.0767 3.12626 26.0795L14.7805 32.0894C14.9089 32.9722 15.3506 33.7794 16.025 34.3634C16.6993 34.9474 17.5613 35.2693 18.4534 35.2703C19.4277 35.2686 20.3625 34.8847 21.0567 34.2011C21.7509 33.5174 22.1491 32.5886 22.1656 31.6145L35.0021 24.6564C35.6512 25.1655 36.4593 25.444 37.2861 25.444C38.2708 25.443 39.2149 25.0515 39.9112 24.3552C40.6075 23.6589 40.9991 22.7148 41 21.73C40.9991 20.7453 40.6075 19.8012 39.9112 19.1049C39.2149 18.4086 38.2708 18.017 37.2861 18.0161" fill="white"></path> </svg>